<?xml version="1.0" encoding="UTF-8" standalone="no"?>
<!-- Created with Inkscape (http://www.inkscape.org/) -->

<svg
   width="63.999996"
   height="63.999996"
   viewBox="0 0 16.933332 16.933332"
   version="1.1"
   id="svg1"
   xmlns="http://www.w3.org/2000/svg"
   xmlns:svg="http://www.w3.org/2000/svg">
  <defs
     id="defs1" />
  <g
     id="layer1">
    <path
       d="m 14.224012,2.7136478 q 1.269999,1.0301103 1.989665,2.5117758 0.719666,1.4816656 0.719666,3.1749976 0,1.6933318 -0.719666,3.1749978 -0.719666,1.481665 -1.989665,2.511776 -0.197556,0.155222 -0.451556,0.126999 -0.253999,-0.02822 -0.409222,-0.211666 -0.155222,-0.197555 -0.126999,-0.451555 0.02822,-0.254 0.211666,-0.409222 Q 14.506234,12.295085 15.0989,11.053308 15.691566,9.8115312 15.705677,8.4004212 15.691566,6.9893112 15.0989,5.7475343 14.506234,4.5057575 13.447901,3.6590915 13.264457,3.5038694 13.236235,3.2498696 q -0.02822,-0.2539998 0.126999,-0.4515552 0.155223,-0.1834443 0.409222,-0.2116665 0.254,-0.028222 0.451556,0.1269999 z m -1.53811,1.9049985 q 0.846666,0.6773328 1.326443,1.6651099 0.479777,0.987777 0.479777,2.116665 0,1.128888 -0.479777,2.1166648 -0.479777,0.987777 -1.326443,1.679221 -0.197556,0.155222 -0.451556,0.127 -0.253999,-0.02822 -0.409221,-0.211666 -0.169334,-0.197556 -0.141111,-0.451556 0.02822,-0.253999 0.225777,-0.409222 1.354666,-1.100665 1.354666,-2.8504418 0,-1.7356653 -1.354666,-2.8363312 -0.197555,-0.1552221 -0.225777,-0.4092219 -0.02822,-0.2539998 0.141111,-0.4515552 0.155222,-0.1975554 0.409221,-0.2257776 0.254,-0.028222 0.451556,0.1269999 z m -1.53811,1.8908875 q 0.90311,0.7478883 0.90311,1.8908874 0,1.1571102 -0.90311,1.9049988 -0.197556,0.155222 -0.451555,0.127 -0.254,-0.02822 -0.409222,-0.225778 -0.155222,-0.197555 -0.127,-0.4515552 0.02822,-0.2539998 0.211666,-0.4092219 0.451555,-0.3809997 0.451555,-0.9454437 0,-0.564444 -0.451555,-0.9454437 -0.183444,-0.1552221 -0.211666,-0.4092219 -0.02822,-0.2539998 0.127,-0.4515552 0.155222,-0.1975554 0.409222,-0.2257776 0.253999,-0.028222 0.451555,0.141111 z M 8.3114606,2.7842033 Q 8.791238,2.9958698 8.791238,3.5179805 v 9.7648815 q 0,0.536222 -0.4797774,0.747888 -0.4938885,0.211667 -0.8748882,-0.127 L 4.0075751,10.841642 H 2.2719097 Q 1.608688,10.855753 1.1289106,10.375975 0.64913321,9.8961978 0.64913321,9.218865 V 7.5960885 q 0,-0.6773328 0.47977739,-1.1571102 Q 1.608688,5.9592008 2.2719097,5.9592008 H 4.0075751 L 7.4365724,2.9112032 Q 7.8175721,2.5725368 8.3114606,2.7842033 Z"
       id="text3"
       style="font-size:14.1111px;stroke-width:0.264583"
       aria-label="" />
  </g>
</svg>
